<?xml version="1.0" standalone="no"?>
<!DOCTYPE svg PUBLIC "-//W3C//DTD SVG 20010904//EN"
 "http://www.w3.org/TR/2001/REC-SVG-20010904/DTD/svg10.dtd">
<svg version="1.0" xmlns="http://www.w3.org/2000/svg"
 width="220.000000pt" height="218.000000pt" viewBox="0 0 220.000000 218.000000"
 preserveAspectRatio="xMidYMid meet">

<g transform="translate(0.000000,218.000000) scale(0.100000,-0.100000)"
fill="#000000" stroke="none">
<path d="M0 1090 l0 -1090 1100 0 1100 0 0 1090 0 1090 -1100 0 -1100 0 0
-1090z m1545 834 c236 -113 436 -213 443 -222 9 -12 12 -139 12 -557 l0 -542
-22 -20 c-34 -30 -862 -483 -883 -483 -22 0 -850 453 -883 483 l-22 20 0 542
c0 418 3 545 13 557 15 20 865 428 892 428 11 0 213 -93 450 -206z"/>
<path d="M748 1827 c-186 -89 -338 -164 -338 -167 0 -4 83 -52 184 -108 213
-119 236 -135 236 -167 0 -31 -36 -65 -68 -65 -13 0 -99 42 -191 94 -91 51
-185 103 -209 115 l-42 21 0 -442 1 -443 380 -210 c210 -116 387 -210 393
-210 7 0 184 94 394 210 l381 210 1 443 c0 243 -2 442 -4 442 -2 0 -96 -52
-208 -115 -113 -63 -216 -115 -229 -115 -32 0 -69 34 -69 64 0 34 27 53 233
166 103 57 187 106 187 110 0 6 -663 323 -683 327 -7 1 -164 -71 -349 -160z
m432 -408 c50 -11 80 -34 80 -59 0 -10 -23 -58 -51 -109 -54 -97 -64 -105
-135 -99 -38 3 -41 6 -97 100 -62 103 -66 127 -24 150 52 27 150 35 227 17z
m72 -594 c48 -154 87 -285 85 -292 -3 -15 -228 -213 -242 -213 -12 0 -238 196
-243 210 -3 8 164 555 175 573 3 4 34 7 71 5 l66 -3 88 -280z"/>
</g>
</svg>
